<?xml version="1.0" encoding="utf-8"?>
<svg viewBox="0 0 240.3 71.3" style="enable-background:new 0 0 240.3 71.3;" xmlns="http://www.w3.org/2000/svg">
  <defs>
    <style type="text/css">
	.st0{display:none;fill-rule:evenodd;clip-rule:evenodd;fill:#DBD8E3;}
	.st1{fill-rule:evenodd;clip-rule:evenodd;fill:#DBD8E3;}
	.st2{fill:#DBD8E3;}
	.st3{fill:#1D1F21;}
</style>
  </defs>
  <rect id="icon.primary" x="13.6" y="13.5" class="st0" width="44.7" height="44.7"/>
  <g id="surface1">
    <path class="st1" d="M20.6,20.4V33c0,4.9,3.7,9,8.4,9.6v5.7h-5.6v2.8h14v-2.8h-5.6v-5.7c4.7-0.7,8.4-4.7,8.4-9.6V20.4H20.6z M43,20.4v9.8h1.4c0.8,0,1.4-0.6,1.4-1.4v-8.4H43z M48.6,20.4v9.8c0,2.3-1.9,4.2-4.2,4.2H43v16.8h2.8V36.9c3.2-0.7,5.6-3.3,5.6-6.7 v-9.8H48.6z M23.4,23.2h14V33c0,3.9-3.1,7-7,7s-7-3.1-7-7V23.2z"/>
  </g>
  <path id="shape.primary" class="st2" d="M4.4,4.2v63.1h63.1V4.2H4.4z M0.6,0.4h70.8v70.8H0.6V0.4z"/>
  <g>
    <path d="M 96.555 37.425 C 95.568 38.674 94.629 39.786 93.737 40.761 C 92.846 41.737 91.947 42.649 91.04 43.498 C 90.133 44.345 89.202 45.169 88.247 45.969 C 87.292 46.77 86.257 47.625 85.143 48.536 L 81.443 57.537 L 78.054 58.617 L 89.561 30.754 C 89.305 31.154 89.01 31.598 88.676 32.086 C 88.342 32.574 87.949 33.122 87.494 33.73 C 87.041 34.338 86.524 35.01 85.943 35.746 C 85.362 36.482 84.706 37.306 83.974 38.218 L 83.377 37.738 C 84.38 36.505 85.255 35.393 86.003 34.402 C 86.751 33.409 87.411 32.505 87.983 31.689 C 88.556 30.873 89.046 30.133 89.452 29.47 C 89.858 28.806 90.22 28.186 90.538 27.61 C 90.857 27.034 91.144 26.49 91.398 25.978 C 91.652 25.467 91.907 24.955 92.161 24.442 C 92.671 23.227 93.193 22.127 93.726 21.143 C 94.259 20.159 94.812 19.327 95.385 18.647 C 95.958 17.967 96.551 17.442 97.164 17.075 C 97.776 16.707 98.408 16.523 99.061 16.523 C 99.682 16.523 100.179 16.747 100.553 17.195 C 100.928 17.643 101.115 18.195 101.115 18.85 C 101.115 20.051 100.828 21.279 100.255 22.535 C 99.682 23.791 98.934 25.035 98.011 26.267 C 97.088 27.498 96.05 28.706 94.896 29.89 C 93.742 31.074 92.583 32.201 91.422 33.273 L 85.859 46.784 C 86.512 46.305 87.212 45.757 87.96 45.142 C 88.708 44.526 89.5 43.822 90.335 43.03 C 91.171 42.237 92.058 41.341 92.997 40.341 C 93.936 39.341 94.923 38.209 95.958 36.945 L 96.555 37.425 Z M 92.234 31.329 C 93.38 30.21 94.438 29.102 95.409 28.006 C 96.379 26.91 97.215 25.838 97.915 24.791 C 98.615 23.742 99.16 22.722 99.55 21.731 C 99.94 20.739 100.135 19.778 100.135 18.85 C 100.135 18.563 100.088 18.275 99.992 17.986 C 99.896 17.699 99.69 17.555 99.372 17.555 C 98.815 17.555 98.254 17.987 97.689 18.85 C 97.124 19.715 96.531 20.899 95.91 22.403 L 92.234 31.329 Z M 112.428 37.498 C 111.919 38.154 111.442 38.705 110.996 39.154 C 110.55 39.602 110.113 39.97 109.684 40.257 C 109.254 40.546 108.836 40.762 108.43 40.906 C 108.024 41.049 107.614 41.145 107.2 41.194 C 106.722 41.898 106.193 42.558 105.613 43.173 C 105.032 43.789 104.419 44.325 103.774 44.782 C 103.129 45.238 102.449 45.597 101.733 45.862 C 101.017 46.125 100.293 46.256 99.561 46.256 C 98.973 46.256 98.4 46.157 97.842 45.957 C 97.285 45.757 96.788 45.453 96.35 45.045 C 95.913 44.637 95.563 44.125 95.3 43.509 C 95.037 42.893 94.906 42.169 94.906 41.337 C 94.906 40.041 95.136 38.757 95.598 37.486 C 96.06 36.214 96.704 35.026 97.532 33.922 C 98.359 32.818 99.354 31.826 100.516 30.946 C 101.677 30.066 102.959 29.362 104.359 28.834 L 104.574 29.17 C 103.349 30.242 102.295 31.386 101.411 32.603 C 100.528 33.818 99.8 35.038 99.227 36.262 C 98.654 37.486 98.228 38.674 97.95 39.826 C 97.671 40.978 97.532 42.026 97.532 42.97 C 97.532 43.273 97.564 43.565 97.628 43.845 C 97.691 44.125 97.79 44.373 97.926 44.589 C 98.062 44.805 98.224 44.978 98.415 45.105 C 98.606 45.233 98.837 45.297 99.107 45.297 C 99.457 45.297 99.843 45.177 100.265 44.937 C 100.686 44.697 101.12 44.373 101.566 43.965 C 102.012 43.557 102.461 43.073 102.914 42.513 C 103.369 41.953 103.811 41.353 104.241 40.714 C 103.476 40.297 102.927 39.701 102.593 38.925 C 102.258 38.149 102.091 37.305 102.091 36.393 C 102.091 35.546 102.243 34.718 102.545 33.911 C 102.847 33.102 103.237 32.386 103.716 31.762 C 104.193 31.139 104.718 30.639 105.291 30.262 C 105.863 29.886 106.42 29.698 106.961 29.698 C 107.248 29.698 107.559 29.762 107.892 29.89 C 108.226 30.018 108.537 30.234 108.824 30.538 C 109.11 30.842 109.349 31.25 109.54 31.762 C 109.731 32.274 109.827 32.914 109.827 33.682 C 109.827 34.706 109.644 35.79 109.277 36.934 C 108.911 38.078 108.41 39.202 107.774 40.306 C 108.06 40.242 108.35 40.138 108.644 39.994 C 108.939 39.849 109.249 39.649 109.576 39.393 C 109.902 39.137 110.252 38.813 110.627 38.421 C 111 38.029 111.41 37.553 111.855 36.994 L 112.428 37.498 Z M 102.974 36.322 C 102.974 37.186 103.114 37.938 103.392 38.578 C 103.671 39.218 104.105 39.697 104.693 40.018 C 105.124 39.33 105.521 38.618 105.887 37.882 C 106.253 37.145 106.571 36.421 106.842 35.71 C 107.113 34.998 107.328 34.317 107.487 33.67 C 107.645 33.022 107.725 32.442 107.725 31.93 C 107.725 31.674 107.685 31.466 107.607 31.306 C 107.527 31.146 107.427 31.022 107.308 30.935 C 107.189 30.846 107.061 30.786 106.925 30.754 C 106.791 30.722 106.675 30.706 106.58 30.706 C 106.277 30.706 105.919 30.862 105.506 31.174 C 105.091 31.486 104.697 31.902 104.323 32.422 C 103.95 32.942 103.632 33.542 103.369 34.221 C 103.106 34.902 102.974 35.602 102.974 36.322 Z M 128.376 37.498 C 127.867 38.154 127.39 38.705 126.944 39.154 C 126.498 39.602 126.06 39.97 125.63 40.257 C 125.201 40.546 124.784 40.762 124.378 40.906 C 123.972 41.049 123.562 41.145 123.148 41.194 C 122.671 41.898 122.141 42.558 121.56 43.173 C 120.979 43.789 120.367 44.325 119.722 44.782 C 119.078 45.238 118.397 45.597 117.681 45.862 C 116.965 46.125 116.241 46.256 115.508 46.256 C 114.919 46.256 114.346 46.157 113.789 45.957 C 113.233 45.757 112.735 45.453 112.297 45.045 C 111.86 44.637 111.509 44.125 111.247 43.509 C 110.985 42.893 110.854 42.169 110.854 41.337 C 110.854 40.041 111.085 38.757 111.546 37.486 C 112.008 36.214 112.652 35.026 113.48 33.922 C 114.307 32.818 115.302 31.826 116.464 30.946 C 117.626 30.066 118.907 29.362 120.307 28.834 L 120.522 29.17 C 119.296 30.242 118.241 31.386 117.358 32.603 C 116.475 33.818 115.747 35.038 115.174 36.262 C 114.601 37.486 114.175 38.674 113.898 39.826 C 113.619 40.978 113.48 42.026 113.48 42.97 C 113.48 43.273 113.511 43.565 113.575 43.845 C 113.639 44.125 113.738 44.373 113.873 44.589 C 114.008 44.805 114.172 44.978 114.363 45.105 C 114.553 45.233 114.784 45.297 115.055 45.297 C 115.406 45.297 115.791 45.177 116.213 44.937 C 116.635 44.697 117.068 44.373 117.514 43.965 C 117.96 43.557 118.41 43.073 118.863 42.513 C 119.316 41.953 119.758 41.353 120.188 40.714 C 119.423 40.297 118.874 39.701 118.541 38.925 C 118.207 38.149 118.039 37.305 118.039 36.393 C 118.039 35.546 118.19 34.718 118.492 33.911 C 118.795 33.102 119.185 32.386 119.662 31.762 C 120.14 31.139 120.665 30.639 121.238 30.262 C 121.811 29.886 122.368 29.698 122.91 29.698 C 123.196 29.698 123.506 29.762 123.84 29.89 C 124.175 30.018 124.485 30.234 124.771 30.538 C 125.058 30.842 125.297 31.25 125.487 31.762 C 125.678 32.274 125.774 32.914 125.774 33.682 C 125.774 34.706 125.591 35.79 125.225 36.934 C 124.859 38.078 124.358 39.202 123.72 40.306 C 124.007 40.242 124.298 40.138 124.593 39.994 C 124.887 39.849 125.197 39.649 125.523 39.393 C 125.849 39.137 126.199 38.813 126.573 38.421 C 126.948 38.029 127.358 37.553 127.804 36.994 L 128.376 37.498 Z M 118.923 36.322 C 118.923 37.186 119.062 37.938 119.341 38.578 C 119.619 39.218 120.053 39.697 120.642 40.018 C 121.071 39.33 121.468 38.618 121.834 37.882 C 122.201 37.145 122.52 36.421 122.79 35.71 C 123.06 34.998 123.275 34.317 123.435 33.67 C 123.594 33.022 123.673 32.442 123.673 31.93 C 123.673 31.674 123.633 31.466 123.553 31.306 C 123.474 31.146 123.375 31.022 123.255 30.935 C 123.136 30.846 123.009 30.786 122.873 30.754 C 122.738 30.722 122.622 30.706 122.526 30.706 C 122.225 30.706 121.867 30.862 121.452 31.174 C 121.039 31.486 120.645 31.902 120.271 32.422 C 119.897 32.942 119.579 33.542 119.317 34.221 C 119.054 34.902 118.923 35.602 118.923 36.322 Z M 138.355 42.106 C 138.292 42.249 138.236 42.401 138.188 42.561 C 138.14 42.721 138.117 42.858 138.117 42.97 C 138.117 43.161 138.16 43.289 138.248 43.353 C 138.335 43.417 138.451 43.449 138.595 43.449 C 138.818 43.449 139.088 43.337 139.405 43.114 C 139.724 42.89 140.058 42.562 140.408 42.13 L 144.777 36.706 L 145.373 37.186 L 140.098 43.737 C 139.716 44.217 139.358 44.617 139.024 44.937 C 138.689 45.258 138.375 45.51 138.08 45.694 C 137.786 45.878 137.492 46.009 137.197 46.088 C 136.903 46.169 136.605 46.209 136.303 46.209 C 135.825 46.209 135.427 46.069 135.109 45.789 C 134.791 45.509 134.631 45.153 134.631 44.722 C 134.631 44.242 134.727 43.746 134.918 43.233 C 135.109 42.721 135.371 42.081 135.705 41.313 C 135.864 40.929 136.071 40.442 136.327 39.85 C 136.581 39.258 136.84 38.654 137.103 38.037 C 137.364 37.421 137.611 36.837 137.842 36.286 C 138.073 35.734 138.251 35.314 138.379 35.025 C 138.443 34.881 138.475 34.746 138.475 34.618 C 138.475 34.458 138.419 34.378 138.308 34.378 C 138.196 34.378 138.045 34.498 137.853 34.738 C 137.36 35.378 136.827 36.105 136.254 36.921 C 135.681 37.737 135.089 38.573 134.477 39.429 C 133.864 40.286 133.239 41.122 132.601 41.938 C 131.965 42.754 131.333 43.481 130.704 44.121 C 130.075 44.761 129.467 45.278 128.878 45.67 C 128.289 46.061 127.74 46.256 127.231 46.256 C 127.04 46.256 126.828 46.217 126.597 46.138 C 126.367 46.057 126.152 45.913 125.954 45.705 C 125.755 45.496 125.591 45.208 125.463 44.841 C 125.336 44.473 125.272 44.009 125.272 43.449 C 125.272 42.537 125.467 41.558 125.857 40.509 C 126.248 39.462 126.781 38.418 127.457 37.378 C 128.134 36.338 128.93 35.326 129.845 34.342 C 130.759 33.358 131.738 32.478 132.781 31.702 C 133.823 30.926 134.905 30.282 136.027 29.769 C 137.15 29.258 138.26 28.946 139.358 28.834 L 139.358 29.267 C 138.372 29.602 137.425 30.077 136.518 30.694 C 135.61 31.31 134.766 32.01 133.986 32.794 C 133.207 33.578 132.503 34.409 131.874 35.29 C 131.246 36.169 130.704 37.033 130.25 37.882 C 129.797 38.73 129.451 39.534 129.212 40.294 C 128.973 41.054 128.854 41.697 128.854 42.225 C 128.854 42.513 128.898 42.754 128.985 42.946 C 129.072 43.137 129.196 43.233 129.356 43.233 C 129.53 43.233 129.789 43.089 130.132 42.802 C 130.473 42.513 130.867 42.125 131.313 41.638 C 131.759 41.15 132.244 40.59 132.769 39.957 C 133.294 39.325 133.827 38.665 134.368 37.977 C 134.909 37.289 135.447 36.593 135.98 35.889 C 136.513 35.185 137.01 34.521 137.472 33.898 C 138.188 32.938 138.817 32.022 139.358 31.15 C 139.899 30.278 140.361 29.506 140.743 28.834 C 141.189 28.05 141.579 27.314 141.913 26.627 L 145.971 16.93 L 148.859 16.93 L 138.355 42.106 Z M 173.687 32.434 C 173.735 32.322 173.759 32.234 173.759 32.17 C 173.759 32.073 173.731 32.005 173.676 31.965 C 173.62 31.926 173.552 31.906 173.472 31.906 C 173.313 31.906 173.17 31.994 173.043 32.17 L 168.818 37.425 C 167.815 38.674 166.867 39.782 165.976 40.75 C 165.085 41.717 164.19 42.625 163.29 43.474 C 162.391 44.322 161.464 45.149 160.509 45.957 C 159.555 46.765 158.52 47.625 157.405 48.536 L 153.705 57.537 L 150.316 58.617 L 161.823 30.754 C 161.568 31.154 161.273 31.598 160.938 32.086 C 160.605 32.574 160.211 33.122 159.757 33.73 C 159.304 34.338 158.787 35.01 158.205 35.746 C 157.625 36.482 156.969 37.306 156.237 38.218 L 155.639 37.738 C 157.135 35.898 158.369 34.314 159.339 32.986 C 160.311 31.658 161.114 30.49 161.751 29.482 C 162.388 28.474 162.905 27.578 163.303 26.795 C 163.7 26.011 164.074 25.226 164.424 24.442 C 164.965 23.242 165.507 22.155 166.048 21.179 C 166.589 20.203 167.142 19.37 167.708 18.682 C 168.272 17.994 168.853 17.462 169.45 17.087 C 170.046 16.711 170.671 16.523 171.324 16.523 C 171.944 16.523 172.442 16.747 172.816 17.195 C 173.19 17.643 173.377 18.195 173.377 18.85 C 173.377 20.051 173.091 21.279 172.518 22.535 C 171.945 23.791 171.197 25.035 170.274 26.267 C 169.35 27.498 168.312 28.706 167.159 29.89 C 166.004 31.074 164.846 32.201 163.684 33.273 L 158.122 46.784 C 158.774 46.305 159.475 45.757 160.222 45.142 C 160.971 44.526 161.767 43.822 162.61 43.03 C 163.453 42.237 164.344 41.341 165.283 40.341 C 166.222 39.341 167.201 38.209 168.22 36.945 L 173.09 30.898 C 173.505 30.387 173.938 29.935 174.392 29.543 C 174.845 29.15 175.318 28.954 175.813 28.954 C 176.274 28.954 176.608 29.078 176.814 29.325 C 177.021 29.574 177.125 29.85 177.125 30.155 C 177.125 30.458 177.069 30.802 176.958 31.187 C 176.846 31.57 176.703 31.97 176.529 32.385 L 172.518 42.106 C 172.454 42.265 172.398 42.421 172.351 42.573 C 172.302 42.726 172.278 42.858 172.278 42.97 C 172.278 43.161 172.322 43.289 172.411 43.353 C 172.498 43.417 172.613 43.449 172.756 43.449 C 172.979 43.449 173.25 43.337 173.568 43.114 C 173.887 42.89 174.221 42.562 174.571 42.13 L 178.94 36.706 L 179.536 37.186 L 174.261 43.737 C 173.878 44.217 173.52 44.617 173.187 44.937 C 172.852 45.258 172.538 45.51 172.243 45.694 C 171.949 45.878 171.655 46.009 171.36 46.088 C 171.066 46.169 170.767 46.209 170.464 46.209 C 169.987 46.209 169.589 46.069 169.271 45.789 C 168.952 45.509 168.793 45.153 168.793 44.722 C 168.793 44.321 168.888 43.849 169.08 43.306 C 169.271 42.762 169.534 42.097 169.868 41.313 L 173.687 32.434 Z M 164.496 31.329 C 165.643 30.21 166.701 29.102 167.671 28.006 C 168.642 26.91 169.477 25.838 170.177 24.791 C 170.878 23.742 171.423 22.722 171.813 21.731 C 172.203 20.739 172.398 19.778 172.398 18.85 C 172.398 18.563 172.35 18.275 172.255 17.986 C 172.159 17.699 171.952 17.555 171.635 17.555 C 171.077 17.555 170.516 17.987 169.952 18.85 C 169.386 19.715 168.793 20.899 168.173 22.403 L 164.496 31.329 Z M 179.345 19.427 C 179.823 19.427 180.197 19.599 180.467 19.943 C 180.738 20.286 180.874 20.69 180.874 21.154 C 180.874 21.411 180.83 21.671 180.741 21.934 C 180.654 22.198 180.527 22.434 180.36 22.643 C 180.192 22.851 179.994 23.023 179.763 23.158 C 179.532 23.294 179.266 23.362 178.964 23.362 C 178.502 23.362 178.128 23.182 177.841 22.822 C 177.555 22.462 177.412 22.059 177.412 21.611 C 177.412 21.274 177.471 20.974 177.59 20.71 C 177.71 20.447 177.861 20.219 178.044 20.027 C 178.227 19.834 178.434 19.686 178.664 19.583 C 178.895 19.479 179.123 19.427 179.345 19.427 Z M 184.216 32.434 C 184.264 32.322 184.288 32.234 184.288 32.17 C 184.288 32.073 184.26 32.005 184.205 31.965 C 184.149 31.926 184.081 31.906 184.001 31.906 C 183.842 31.906 183.699 31.994 183.571 32.17 L 178.844 38.05 L 178.248 37.57 L 183.62 30.898 C 184.033 30.387 184.466 29.935 184.921 29.543 C 185.374 29.15 185.847 28.954 186.34 28.954 C 186.802 28.954 187.136 29.078 187.343 29.325 C 187.55 29.574 187.654 29.85 187.654 30.155 C 187.654 30.458 187.598 30.802 187.487 31.187 C 187.375 31.57 187.232 31.97 187.056 32.385 L 183.738 40.233 C 183.643 40.457 183.596 40.633 183.596 40.761 C 183.596 40.921 183.66 41.001 183.787 41.001 C 183.961 41.001 184.152 40.841 184.359 40.522 L 189.349 33.058 C 189.858 32.29 190.316 31.639 190.722 31.103 C 191.127 30.566 191.51 30.13 191.868 29.795 C 192.226 29.459 192.567 29.214 192.893 29.062 C 193.22 28.91 193.559 28.834 193.909 28.834 C 194.514 28.834 194.975 28.954 195.294 29.194 C 195.611 29.434 195.77 29.786 195.77 30.25 C 195.77 30.522 195.731 30.807 195.652 31.103 C 195.572 31.399 195.492 31.659 195.412 31.883 L 191.259 42.106 C 191.195 42.265 191.139 42.421 191.092 42.573 C 191.044 42.726 191.02 42.858 191.02 42.97 C 191.02 43.161 191.063 43.289 191.151 43.353 C 191.239 43.417 191.355 43.449 191.497 43.449 C 191.72 43.449 191.991 43.337 192.31 43.114 C 192.627 42.89 192.961 42.562 193.311 42.13 L 197.68 36.706 L 198.278 37.186 L 193.001 43.737 C 192.619 44.217 192.261 44.617 191.926 44.937 C 191.592 45.258 191.278 45.51 190.983 45.694 C 190.689 45.878 190.395 46.009 190.1 46.088 C 189.806 46.169 189.508 46.209 189.206 46.209 C 188.729 46.209 188.331 46.069 188.012 45.789 C 187.693 45.509 187.534 45.153 187.534 44.722 C 187.534 44.321 187.63 43.849 187.821 43.306 C 188.011 42.762 188.274 42.097 188.608 41.313 L 192.475 32.122 C 192.524 32.01 192.548 31.89 192.548 31.762 C 192.548 31.442 192.396 31.282 192.094 31.282 C 191.966 31.282 191.827 31.322 191.676 31.402 C 191.525 31.482 191.37 31.642 191.21 31.883 L 183.333 43.642 C 182.712 44.569 182.167 45.229 181.697 45.621 C 181.228 46.013 180.771 46.209 180.325 46.209 C 179.593 46.209 179.227 45.857 179.227 45.153 C 179.227 44.785 179.319 44.329 179.502 43.785 C 179.685 43.241 179.935 42.586 180.252 41.817 L 184.216 32.434 Z M 208.04 42.106 C 207.976 42.249 207.921 42.401 207.873 42.561 C 207.825 42.721 207.801 42.858 207.801 42.97 C 207.801 43.161 207.845 43.289 207.933 43.353 C 208.02 43.417 208.136 43.449 208.279 43.449 C 208.501 43.449 208.772 43.337 209.091 43.114 C 209.409 42.89 209.744 42.562 210.094 42.13 L 214.463 36.706 L 215.059 37.186 L 209.783 43.737 C 209.401 44.217 209.043 44.617 208.709 44.937 C 208.375 45.258 208.06 45.51 207.766 45.694 C 207.472 45.878 207.177 46.009 206.883 46.088 C 206.588 46.169 206.29 46.209 205.987 46.209 C 205.51 46.209 205.112 46.069 204.793 45.789 C 204.474 45.509 204.315 45.153 204.315 44.722 C 204.315 44.242 204.411 43.746 204.602 43.233 C 204.794 42.721 205.056 42.081 205.391 41.313 C 205.55 40.929 205.756 40.442 206.011 39.85 C 206.265 39.258 206.524 38.654 206.787 38.037 C 207.049 37.421 207.296 36.837 207.526 36.286 C 207.758 35.734 207.937 35.314 208.064 35.025 C 208.128 34.881 208.16 34.746 208.16 34.618 C 208.16 34.458 208.105 34.378 207.993 34.378 C 207.882 34.378 207.73 34.498 207.539 34.738 C 207.046 35.378 206.513 36.105 205.94 36.921 C 205.367 37.737 204.774 38.573 204.161 39.429 C 203.548 40.286 202.923 41.122 202.287 41.938 C 201.65 42.754 201.017 43.481 200.39 44.121 C 199.761 44.761 199.152 45.278 198.563 45.67 C 197.973 46.061 197.424 46.256 196.915 46.256 C 196.724 46.256 196.513 46.217 196.283 46.138 C 196.052 46.057 195.837 45.913 195.638 45.705 C 195.439 45.496 195.276 45.208 195.149 44.841 C 195.021 44.473 194.958 44.009 194.958 43.449 C 194.958 42.537 195.153 41.558 195.543 40.509 C 195.933 39.462 196.466 38.418 197.142 37.378 C 197.818 36.338 198.614 35.326 199.53 34.342 C 200.445 33.358 201.423 32.478 202.465 31.702 C 203.508 30.926 204.591 30.282 205.712 29.769 C 206.834 29.258 207.945 28.946 209.043 28.834 L 209.043 29.267 C 208.056 29.602 207.109 30.077 206.201 30.694 C 205.294 31.31 204.451 32.01 203.672 32.794 C 202.891 33.578 202.187 34.409 201.558 35.29 C 200.929 36.169 200.389 37.033 199.935 37.882 C 199.482 38.73 199.136 39.534 198.896 40.294 C 198.657 41.054 198.538 41.697 198.538 42.225 C 198.538 42.513 198.582 42.754 198.67 42.946 C 198.758 43.137 198.881 43.233 199.04 43.233 C 199.215 43.233 199.474 43.089 199.815 42.802 C 200.158 42.513 200.552 42.125 200.997 41.638 C 201.443 41.15 201.928 40.59 202.454 39.957 C 202.979 39.325 203.512 38.665 204.053 37.977 C 204.595 37.289 205.132 36.593 205.665 35.889 C 206.198 35.185 206.696 34.521 207.157 33.898 C 207.873 32.938 208.502 32.022 209.043 31.15 C 209.584 30.278 210.045 29.506 210.427 28.834 C 210.872 28.05 211.263 27.314 211.597 26.627 L 215.655 16.93 L 218.544 16.93 L 208.04 42.106 Z M 217.447 45.226 C 218.02 45.226 218.644 45.097 219.32 44.841 C 219.996 44.585 220.76 44.145 221.612 43.522 C 222.464 42.897 223.407 42.053 224.441 40.99 C 225.476 39.925 226.638 38.585 227.927 36.97 L 228.523 37.449 C 227.425 38.857 226.415 40.053 225.492 41.037 C 224.569 42.021 223.725 42.837 222.96 43.485 C 222.197 44.133 221.509 44.637 220.896 44.998 C 220.283 45.357 219.738 45.625 219.26 45.801 C 218.783 45.977 218.361 46.085 217.995 46.125 C 217.63 46.165 217.319 46.185 217.063 46.185 C 216.682 46.185 216.252 46.129 215.775 46.017 C 215.297 45.905 214.852 45.701 214.437 45.405 C 214.024 45.109 213.678 44.705 213.4 44.194 C 213.121 43.681 212.982 43.017 212.982 42.201 C 212.982 41.001 213.177 39.841 213.567 38.721 C 213.957 37.601 214.47 36.55 215.106 35.566 C 215.743 34.582 216.463 33.682 217.267 32.866 C 218.07 32.05 218.89 31.35 219.726 30.767 C 220.561 30.182 221.37 29.73 222.15 29.409 C 222.929 29.09 223.613 28.931 224.202 28.931 C 225.046 28.931 225.655 29.183 226.028 29.687 C 226.402 30.19 226.589 30.834 226.589 31.618 C 226.589 32.338 226.43 33.034 226.112 33.706 C 225.794 34.378 225.372 35.014 224.847 35.613 C 224.321 36.214 223.712 36.766 223.02 37.27 C 222.328 37.774 221.605 38.206 220.849 38.565 C 220.093 38.926 219.328 39.21 218.555 39.417 C 217.784 39.625 217.064 39.729 216.396 39.729 C 216.189 40.337 216.026 40.913 215.906 41.457 C 215.787 42.002 215.727 42.506 215.727 42.97 C 215.727 43.833 215.895 44.425 216.229 44.746 C 216.563 45.066 216.969 45.226 217.447 45.226 Z M 223.415 29.914 C 222.985 29.914 222.467 30.19 221.863 30.743 C 221.258 31.295 220.634 32.01 219.989 32.889 C 219.344 33.77 218.724 34.75 218.126 35.83 C 217.529 36.91 217.032 37.985 216.634 39.057 C 217.765 38.866 218.795 38.478 219.726 37.893 C 220.657 37.31 221.453 36.63 222.113 35.854 C 222.774 35.078 223.283 34.258 223.642 33.394 C 223.999 32.53 224.178 31.738 224.178 31.019 C 224.178 30.586 224.106 30.294 223.963 30.142 C 223.82 29.99 223.637 29.914 223.415 29.914 Z M 233.633 42.106 C 233.569 42.265 233.513 42.421 233.466 42.573 C 233.417 42.726 233.393 42.858 233.393 42.97 C 233.393 43.161 233.437 43.289 233.524 43.353 C 233.613 43.417 233.728 43.449 233.871 43.449 C 234.094 43.449 234.365 43.337 234.683 43.114 C 235.001 42.89 235.335 42.562 235.685 42.13 L 240.054 36.706 L 240.651 37.186 L 235.376 43.737 C 234.993 44.217 234.639 44.617 234.313 44.937 C 233.987 45.258 233.68 45.51 233.393 45.694 C 233.107 45.878 232.821 46.009 232.534 46.088 C 232.248 46.169 231.953 46.209 231.651 46.209 C 231.173 46.209 230.787 46.069 230.493 45.789 C 230.199 45.509 230.051 45.153 230.051 44.722 C 230.051 44.321 230.147 43.849 230.338 43.306 C 230.529 42.762 230.791 42.097 231.125 41.313 L 234.467 33.299 C 234.547 33.106 234.627 32.906 234.707 32.698 C 234.786 32.489 234.857 32.29 234.922 32.098 C 234.986 31.906 235.037 31.734 235.076 31.581 C 235.116 31.43 235.136 31.315 235.136 31.234 C 235.136 31.154 235.108 31.094 235.052 31.054 C 234.997 31.013 234.929 30.993 234.851 30.993 C 234.643 30.993 234.421 30.985 234.182 30.969 C 233.943 30.954 233.705 30.914 233.466 30.851 C 233.195 31.234 232.884 31.666 232.534 32.146 C 232.184 32.626 231.782 33.166 231.329 33.766 C 230.876 34.366 230.366 35.034 229.801 35.77 C 229.236 36.506 228.603 37.322 227.903 38.218 L 227.305 37.738 C 228.516 36.186 229.558 34.838 230.433 33.693 C 231.309 32.55 232.065 31.522 232.701 30.61 C 232.335 30.45 232.029 30.23 231.781 29.95 C 231.535 29.67 231.412 29.298 231.412 28.834 C 231.412 28.658 231.464 28.411 231.567 28.09 C 231.671 27.77 231.822 27.458 232.021 27.155 C 232.22 26.85 232.471 26.586 232.773 26.362 C 233.075 26.138 233.425 26.026 233.824 26.026 C 234.141 26.026 234.44 26.118 234.718 26.302 C 234.997 26.486 235.136 26.77 235.136 27.155 C 235.136 27.427 235.041 27.778 234.851 28.211 C 234.659 28.642 234.309 29.162 233.8 29.769 C 234.039 29.881 234.27 29.946 234.493 29.963 C 234.714 29.979 234.945 29.986 235.183 29.986 C 235.486 29.986 235.761 29.974 236.008 29.95 C 236.254 29.926 236.489 29.914 236.712 29.914 C 237.157 29.914 237.468 30.026 237.644 30.25 C 237.818 30.474 237.906 30.73 237.906 31.019 C 237.906 31.322 237.838 31.69 237.702 32.122 C 237.568 32.554 237.437 32.93 237.309 33.249 L 233.633 42.106 Z" style="fill: rgb(51, 51, 51); white-space: pre;"/>
    <path style="fill: rgb(51, 51, 51); white-space: pre;"/>
    <path style="fill: rgb(51, 51, 51); white-space: pre;"/>
  </g>
</svg>